<?xml version="1.0" encoding="UTF-8" standalone="no"?>
<!DOCTYPE svg PUBLIC "-//W3C//DTD SVG 1.1//EN" "http://www.w3.org/Graphics/SVG/1.1/DTD/svg11.dtd">
<svg width="100%" height="100%" viewBox="0 0 45 46" version="1.1" xmlns="http://www.w3.org/2000/svg" xmlns:xlink="http://www.w3.org/1999/xlink" xml:space="preserve" xmlns:serif="http://www.serif.com/" style="fill-rule:evenodd;clip-rule:evenodd;stroke-linejoin:round;stroke-miterlimit:2;">
    <g transform="matrix(1,0,0,1,-9.65104,-8.86234)">
        <path d="M32,28.15C34.125,28.15 35.85,29.875 35.85,32C35.85,34.125 34.125,35.85 32,35.85C29.875,35.85 28.15,34.125 28.15,32C28.15,29.875 29.875,28.15 32,28.15ZM32,29.133C33.582,29.133 34.867,30.418 34.867,32C34.867,33.582 33.582,34.867 32,34.867C30.418,34.867 29.133,33.582 29.133,32C29.133,30.418 30.418,29.133 32,29.133Z" style="fill:rgb(215,45,45);"/>
    </g>
</svg>
