<?xml version="1.0" encoding="UTF-8" standalone="no"?>
<!DOCTYPE svg PUBLIC "-//W3C//DTD SVG 1.1//EN" "http://www.w3.org/Graphics/SVG/1.1/DTD/svg11.dtd">
<svg width="100%" height="100%" viewBox="0 0 45 46" version="1.1" xmlns="http://www.w3.org/2000/svg" xmlns:xlink="http://www.w3.org/1999/xlink" xml:space="preserve" xmlns:serif="http://www.serif.com/" style="fill-rule:evenodd;clip-rule:evenodd;stroke-linejoin:round;stroke-miterlimit:2;">
    <path d="M22.349,0C31.838,0 40.001,5.725 43.559,13.911C38.018,19.293 22.592,23.078 22.352,23.137L22.349,23.138L22.349,1.01L22.349,23.138C22.349,23.138 6.723,19.335 1.139,13.911C4.697,5.725 12.86,0 22.349,0L22.307,0L22.307,0L22.452,0L22.452,0L22.349,0Z" style="fill:rgb(25,30,60);"/>
    <g transform="matrix(1.02991,0,0,1.02991,-10.6081,-9.81945)">
        <circle cx="32" cy="32" r="21.7" style="fill:rgb(55,65,90);"/>
    </g>
    <g transform="matrix(0.937426,0,0,0.937426,-7.64866,-6.85996)">
        <circle cx="32" cy="32" r="21.7" style="fill:rgb(120,145,165);"/>
    </g>
    <g transform="matrix(1,0,0,1,-9.65104,0.749033)">
        <path d="M40.99,4.139C37.853,1.282 28.306,0.3 23.01,4.139L23.01,23.012C23.01,25.396 23.957,27.682 25.643,29.367C27.329,31.053 29.615,32 31.999,32C32,32 32,32 32.001,32C34.385,32 36.671,31.053 38.357,29.367C40.043,27.682 40.99,25.396 40.99,23.012C40.99,14.87 40.99,4.139 40.99,4.139Z" style="fill:rgb(200,225,235);"/>
    </g>
    <g transform="matrix(1,0,0,1,-9.65104,-8.86234)">
        <path d="M32,10.738C43.735,10.738 53.262,20.265 53.262,32C53.262,43.735 43.735,53.262 32,53.262C20.265,53.262 10.738,43.735 10.738,32C10.738,20.265 20.265,10.738 32,10.738ZM32,11.658C43.227,11.658 52.342,20.773 52.342,32C52.342,43.227 43.227,52.342 32,52.342C20.773,52.342 11.658,43.227 11.658,32C11.658,20.773 20.773,11.658 32,11.658Z" style="fill:rgb(25,30,60);"/>
    </g>
    <g transform="matrix(1,0,0,1,-9.65104,-11.2426)">
        <circle cx="32" cy="34.38" r="2.867" style="fill:rgb(0,0,5);"/>
    </g>
    <g transform="matrix(1,0,0,1,-9.65104,-8.86234)">
        <path d="M32,28.15C34.125,28.15 35.85,29.875 35.85,32C35.85,34.125 34.125,35.85 32,35.85C29.875,35.85 28.15,34.125 28.15,32C28.15,29.875 29.875,28.15 32,28.15ZM32,29.133C33.582,29.133 34.867,30.418 34.867,32C34.867,33.582 33.582,34.867 32,34.867C30.418,34.867 29.133,33.582 29.133,32C29.133,30.418 30.418,29.133 32,29.133Z" style="fill:rgb(165,190,205);"/>
    </g>
</svg>
